<svg id="svg" version="1.1" xmlns="http://www.w3.org/2000/svg" xmlns:xlink="http://www.w3.org/1999/xlink" width="400" height="400" viewBox="0, 0, 400,400"><g id="svgg"><path id="path0" d="M189.063 25.266 C 99.116 30.364,29.046 105.882,29.109 197.656 C 29.143 246.498,49.928 292.398,86.990 325.478 C 146.996 379.036,238.599 383.398,302.148 335.724 C 342.238 305.649,366.100 264.160,372.344 213.672 C 373.780 202.062,372.759 180.206,370.108 165.820 C 364.122 133.338,346.531 99.240,324.243 76.919 C 288.067 40.691,240.126 22.372,189.063 25.266 M212.891 60.957 C 247.328 64.077,277.812 79.505,302.169 106.138 C 315.891 121.144,321.370 130.968,318.909 136.155 C 313.696 147.139,263.753 176.530,250.254 176.558 C 246.777 176.565,245.663 175.833,242.598 171.528 C 227.475 150.279,200.021 145.356,179.217 160.162 C 145.936 183.847,156.458 234.688,196.305 242.730 C 214.177 246.337,231.974 240.316,240.628 227.734 C 245.385 220.818,250.431 221.152,264.468 229.312 C 272.196 233.805,295.233 251.802,304.351 260.470 C 312.442 268.162,311.551 272.702,298.816 288.672 C 274.909 318.649,240.628 334.304,199.219 334.155 C 134.071 333.921,76.692 282.554,67.905 216.602 C 63.444 183.114,72.178 145.620,90.322 120.371 C 120.443 78.453,165.413 56.654,212.891 60.957 M190.504 89.076 C 158.728 91.872,126.055 114.546,108.632 145.892 C 83.370 191.341,95.496 249.162,137.305 282.617 C 173.776 311.802,230.391 313.169,263.375 285.663 C 277.283 274.066,278.780 263.261,267.273 257.524 C 260.498 254.146,256.021 254.848,248.466 260.473 C 218.120 283.066,170.334 276.645,146.155 246.724 C 133.606 231.195,128.307 216.718,128.337 198.047 C 128.448 131.020,206.896 96.488,256.639 141.569 C 263.036 147.367,267.611 148.324,273.949 145.192 C 285.122 139.670,286.913 129.280,278.245 120.272 C 264.018 105.488,241.593 93.701,219.922 89.618 C 216.022 88.883,196.737 88.528,190.504 89.076 M127.718 303.223 C 129.337 304.947,129.688 305.257,129.688 304.964 C 129.688 304.901,128.853 304.066,127.832 303.109 L 125.977 301.367 127.718 303.223 M171.289 327.344 C 171.719 327.528,172.334 327.679,172.656 327.679 C 173.026 327.679,172.953 327.555,172.461 327.344 C 172.031 327.159,171.416 327.008,171.094 327.008 C 170.724 327.008,170.797 327.132,171.289 327.344 M201.074 333.479 C 201.558 333.572,202.349 333.572,202.832 333.479 C 203.315 333.386,202.920 333.310,201.953 333.310 C 200.986 333.310,200.591 333.386,201.074 333.479 " stroke="none" fill="#270f66" fill-rule="evenodd"></path><path id="path1" d="M0.000 200.000 L 0.000 400.000 200.000 400.000 L 400.000 400.000 400.000 200.000 L 400.000 0.000 200.000 0.000 L 0.000 0.000 0.000 200.000 M217.188 25.618 C 271.273 31.011,322.594 63.109,347.773 107.288 C 365.294 138.032,373.184 166.034,373.181 197.461 C 373.172 280.774,310.480 353.913,227.901 366.951 C 140.736 380.713,54.965 324.136,33.991 239.041 C 22.061 190.640,30.705 141.981,58.795 99.414 C 92.411 48.475,154.819 19.398,217.188 25.618 M193.750 60.777 C 150.806 64.408,116.025 84.415,90.729 120.037 C 70.633 148.338,62.102 189.823,69.333 224.091 C 69.949 227.014,69.876 226.222,68.734 217.578 C 68.085 212.675,67.743 207.294,68.225 209.570 C 68.315 210.000,68.474 210.747,68.577 211.230 C 68.680 211.714,69.006 212.109,69.302 212.109 C 69.942 212.109,70.427 213.164,69.929 213.472 C 69.737 213.591,69.398 213.377,69.177 212.996 C 68.826 212.394,68.772 212.387,68.762 212.941 C 68.755 213.291,69.277 213.796,69.922 214.063 C 70.566 214.329,71.116 214.790,71.143 215.086 C 71.239 216.151,71.293 216.345,71.570 216.622 C 71.724 216.776,71.774 216.505,71.680 216.020 C 71.518 215.176,71.543 215.166,72.252 215.808 C 72.660 216.178,72.899 216.729,72.782 217.033 C 72.628 217.433,72.762 217.513,73.263 217.321 C 73.775 217.124,73.873 217.190,73.637 217.572 C 73.416 217.928,73.467 217.997,73.799 217.791 C 74.093 217.610,74.509 217.818,74.863 218.324 C 75.182 218.780,75.638 219.034,75.874 218.888 C 76.154 218.715,76.215 218.857,76.047 219.292 C 75.883 219.720,75.942 219.868,76.210 219.703 C 76.441 219.560,76.537 219.086,76.423 218.650 C 76.276 218.088,76.337 217.978,76.632 218.273 C 76.861 218.502,77.261 218.607,77.522 218.507 C 77.782 218.407,78.024 218.597,78.060 218.929 C 78.096 219.260,78.154 219.765,78.190 220.051 C 78.231 220.377,78.599 220.504,79.180 220.393 C 79.717 220.290,80.411 220.493,80.833 220.874 C 81.400 221.387,81.605 221.419,81.765 221.020 C 81.877 220.738,81.983 220.903,82.000 221.387 C 82.017 221.870,82.163 222.228,82.324 222.183 C 82.485 222.137,83.015 222.320,83.502 222.590 C 84.218 222.987,84.367 222.984,84.283 222.575 C 84.226 222.298,84.399 222.114,84.668 222.168 C 84.937 222.222,85.156 222.079,85.156 221.852 C 85.156 221.624,85.332 221.547,85.547 221.680 C 85.762 221.812,85.938 221.722,85.938 221.480 C 85.938 221.215,86.173 221.273,86.523 221.624 C 86.846 221.946,87.109 222.432,87.109 222.703 C 87.109 222.980,86.858 222.864,86.536 222.438 C 86.220 222.021,85.962 221.855,85.962 222.070 C 85.962 222.886,87.001 223.893,87.229 223.299 C 87.358 222.963,87.886 222.785,88.580 222.844 C 89.715 222.940,89.718 222.934,89.607 220.943 C 89.498 219.013,89.964 222.331,91.201 232.292 C 92.884 245.852,100.836 268.108,107.736 278.571 C 129.050 310.890,156.252 327.083,198.438 332.565 C 237.143 337.594,281.391 315.896,304.673 280.469 C 312.706 268.245,312.210 266.794,295.117 252.531 C 271.582 232.893,255.892 223.047,248.133 223.047 C 244.916 223.047,243.694 223.846,240.586 227.982 C 223.585 250.601,184.994 248.965,167.826 224.898 C 156.962 209.668,156.436 188.152,166.556 172.952 C 185.247 144.878,223.465 144.324,243.054 171.844 C 248.102 178.935,253.587 178.093,275.586 166.849 C 302.509 153.088,319.336 140.008,319.336 132.841 C 319.336 123.462,296.041 97.031,275.673 83.300 C 252.020 67.354,220.017 58.556,193.750 60.777 M218.164 89.252 C 239.385 92.518,262.966 104.535,277.974 119.732 C 287.102 128.976,285.473 139.705,274.090 145.309 C 267.011 148.794,263.389 147.837,254.884 140.237 C 227.865 116.093,185.126 115.186,156.932 138.158 C 120.678 167.698,118.515 220.972,152.262 253.196 C 176.896 276.718,220.509 280.747,246.289 261.882 C 255.699 254.996,258.543 254.154,264.844 256.384 C 277.390 260.825,278.478 271.091,267.556 281.981 C 244.415 305.054,202.339 312.247,166.794 299.205 C 111.107 278.773,81.379 215.480,101.759 160.742 C 119.903 112.011,169.225 81.720,218.164 89.252 M67.861 207.122 C 67.774 207.824,67.701 207.344,67.699 206.055 C 67.697 204.766,67.768 204.191,67.857 204.778 C 67.946 205.365,67.948 206.420,67.861 207.122 M89.729 218.062 C 89.636 218.548,89.556 218.242,89.552 217.383 C 89.547 216.523,89.624 216.126,89.722 216.499 C 89.819 216.873,89.823 217.576,89.729 218.062 " stroke="none" fill="#fbfbfb" fill-rule="evenodd"></path><path id="path2" d="M295.117 99.219 C 295.956 100.078,296.731 100.781,296.838 100.781 C 296.946 100.781,296.347 100.078,295.508 99.219 C 294.669 98.359,293.894 97.656,293.787 97.656 C 293.679 97.656,294.278 98.359,295.117 99.219 M283.705 131.055 C 283.708 132.129,283.784 132.522,283.874 131.928 C 283.964 131.334,283.961 130.456,283.869 129.975 C 283.776 129.495,283.703 129.980,283.705 131.055 M172.635 165.527 L 171.289 166.992 172.754 165.646 C 173.560 164.906,174.219 164.246,174.219 164.181 C 174.219 163.883,173.888 164.164,172.635 165.527 M236.499 232.520 L 235.352 233.789 236.621 232.642 C 237.319 232.011,237.891 231.439,237.891 231.372 C 237.891 231.070,237.568 231.336,236.499 232.520 M79.718 254.801 C 79.701 254.970,80.051 255.822,80.496 256.694 C 80.941 257.566,81.206 258.535,81.086 258.847 C 80.966 259.160,81.035 259.313,81.238 259.187 C 81.725 258.886,82.923 261.224,82.573 261.791 C 82.395 262.079,82.479 262.120,82.819 261.910 C 83.197 261.676,83.267 261.770,83.079 262.261 C 82.905 262.713,82.969 262.840,83.274 262.652 C 83.579 262.463,83.643 262.590,83.469 263.042 C 83.296 263.494,83.360 263.621,83.665 263.433 C 83.977 263.239,84.030 263.380,83.835 263.889 C 83.680 264.294,83.678 264.499,83.831 264.346 C 84.238 263.939,85.252 265.545,84.923 266.077 C 84.738 266.376,84.818 266.420,85.162 266.207 C 85.541 265.973,85.611 266.067,85.422 266.558 C 85.249 267.009,85.313 267.137,85.618 266.948 C 85.923 266.760,85.986 266.887,85.813 267.339 C 85.660 267.737,85.713 267.912,85.942 267.771 C 86.154 267.639,86.328 267.718,86.328 267.946 C 86.328 268.710,86.443 268.943,87.033 269.374 C 87.389 269.635,87.496 270.003,87.304 270.314 C 87.117 270.616,87.143 270.729,87.368 270.589 C 87.577 270.460,88.053 270.873,88.427 271.506 C 88.801 272.138,88.975 272.656,88.815 272.656 C 88.654 272.656,88.864 272.933,89.281 273.271 C 89.698 273.609,89.775 273.770,89.453 273.628 C 89.131 273.486,89.307 273.752,89.844 274.219 C 90.381 274.686,90.557 274.949,90.234 274.805 C 89.912 274.660,90.088 274.924,90.625 275.391 C 91.162 275.858,91.338 276.117,91.016 275.968 C 90.693 275.818,90.957 276.167,91.602 276.743 C 92.246 277.319,92.510 277.677,92.188 277.538 C 91.865 277.399,91.953 277.570,92.383 277.918 C 92.813 278.265,93.164 278.728,93.164 278.945 C 93.164 279.163,93.604 279.698,94.141 280.134 C 94.678 280.570,94.854 280.809,94.531 280.665 C 94.209 280.521,94.561 280.960,95.313 281.641 C 96.064 282.321,96.416 282.761,96.094 282.619 C 95.771 282.476,96.035 282.844,96.680 283.437 C 97.324 284.030,97.812 284.647,97.763 284.809 C 97.714 284.970,98.198 285.542,98.837 286.080 C 99.477 286.619,100.000 287.204,100.000 287.382 C 100.000 287.560,102.572 290.252,105.715 293.364 C 108.859 296.477,111.300 298.760,111.139 298.438 C 110.978 298.115,111.550 298.643,112.409 299.609 C 113.268 300.576,114.124 301.372,114.310 301.377 C 114.496 301.383,115.691 302.391,116.966 303.617 C 118.241 304.843,119.363 305.767,119.460 305.671 C 119.556 305.574,119.976 305.929,120.393 306.459 C 120.809 306.988,121.401 307.422,121.708 307.422 C 122.015 307.422,122.266 307.584,122.266 307.781 C 122.266 308.280,127.599 312.114,127.889 311.824 C 128.019 311.695,128.125 311.778,128.125 312.009 C 128.125 312.811,136.749 317.808,137.257 317.300 C 137.391 317.167,137.500 317.259,137.500 317.506 C 137.500 318.041,141.204 319.994,141.554 319.644 C 141.688 319.510,141.797 319.616,141.797 319.880 C 141.797 320.143,141.973 320.250,142.188 320.117 C 142.402 319.984,142.578 320.072,142.578 320.313 C 142.578 320.553,142.754 320.641,142.969 320.508 C 143.184 320.375,143.359 320.463,143.359 320.703 C 143.359 320.943,143.535 321.031,143.750 320.898 C 143.965 320.766,144.141 320.854,144.141 321.094 C 144.141 321.334,144.316 321.422,144.531 321.289 C 144.746 321.156,144.922 321.206,144.922 321.400 C 144.922 322.128,155.980 326.775,156.681 326.342 C 156.874 326.223,157.031 326.331,157.031 326.581 C 157.031 326.832,157.295 326.936,157.617 326.812 C 157.939 326.688,158.203 326.776,158.203 327.007 C 158.203 327.238,158.455 327.331,158.764 327.212 C 159.072 327.094,159.382 327.170,159.453 327.383 C 159.524 327.595,160.026 327.815,160.569 327.873 C 161.112 327.931,161.769 328.110,162.028 328.270 C 162.288 328.431,162.676 328.453,162.891 328.320 C 163.105 328.188,163.281 328.277,163.281 328.519 C 163.281 328.781,163.597 328.859,164.063 328.711 C 164.541 328.559,164.844 328.641,164.844 328.922 C 164.844 329.174,165.107 329.279,165.430 329.156 C 165.752 329.032,166.016 329.122,166.016 329.355 C 166.016 329.588,166.367 329.687,166.797 329.574 C 167.227 329.462,167.578 329.541,167.578 329.750 C 167.578 329.960,167.930 330.019,168.359 329.883 C 168.840 329.730,169.141 329.813,169.141 330.097 C 169.141 330.364,169.464 330.475,169.903 330.360 C 170.323 330.251,170.718 330.318,170.782 330.510 C 170.846 330.702,171.602 330.920,172.461 330.994 C 173.320 331.069,174.323 331.260,174.688 331.420 C 175.054 331.579,175.525 331.604,175.736 331.474 C 175.946 331.344,176.235 331.426,176.377 331.657 C 176.531 331.906,177.118 331.971,177.820 331.817 C 178.715 331.621,178.930 331.677,178.702 332.046 C 178.476 332.411,178.657 332.471,179.410 332.282 C 179.966 332.143,180.531 332.207,180.666 332.425 C 180.801 332.643,181.383 332.830,181.959 332.840 C 184.627 332.889,186.174 333.058,186.646 333.352 C 186.929 333.527,187.790 333.553,188.559 333.409 C 189.384 333.254,190.059 333.311,190.205 333.546 C 190.565 334.129,199.834 334.528,205.201 334.193 C 210.963 333.832,210.857 333.572,204.933 333.534 C 202.435 333.518,200.391 333.347,200.391 333.154 C 200.391 332.961,199.661 332.920,198.768 333.063 C 197.545 333.258,197.218 333.205,197.440 332.847 C 197.659 332.492,197.389 332.437,196.372 332.627 C 195.539 332.784,194.909 332.717,194.747 332.456 C 194.601 332.218,194.060 332.135,193.531 332.267 C 192.943 332.415,192.578 332.338,192.578 332.066 C 192.578 331.791,192.211 331.718,191.602 331.871 C 190.975 332.028,190.625 331.952,190.625 331.657 C 190.625 331.382,190.324 331.293,189.877 331.435 C 189.465 331.566,189.015 331.489,188.876 331.264 C 188.737 331.040,188.195 330.964,187.671 331.096 C 187.084 331.243,186.719 331.166,186.719 330.894 C 186.719 330.620,186.351 330.546,185.742 330.699 C 185.115 330.856,184.766 330.780,184.766 330.485 C 184.766 330.203,184.463 330.121,183.984 330.273 C 183.530 330.418,183.203 330.344,183.203 330.097 C 183.203 329.839,182.819 329.769,182.227 329.918 C 181.665 330.059,181.250 329.994,181.250 329.766 C 181.250 329.548,180.898 329.462,180.469 329.574 C 180.039 329.687,179.688 329.599,179.688 329.379 C 179.688 329.159,179.336 329.071,178.906 329.184 C 178.450 329.303,178.125 329.196,178.125 328.925 C 178.125 328.641,177.825 328.558,177.344 328.711 C 176.914 328.847,176.562 328.788,176.562 328.579 C 176.563 328.369,176.211 328.290,175.781 328.402 C 175.352 328.515,175.000 328.427,175.000 328.207 C 175.000 327.987,174.648 327.899,174.219 328.012 C 173.789 328.124,173.438 328.036,173.438 327.817 C 173.438 327.597,173.058 327.516,172.595 327.637 C 172.055 327.778,171.845 327.708,172.010 327.442 C 172.172 327.180,171.977 327.102,171.485 327.230 C 171.055 327.343,170.703 327.244,170.703 327.011 C 170.703 326.778,170.439 326.688,170.117 326.812 C 169.795 326.936,169.531 326.848,169.531 326.617 C 169.531 326.385,169.268 326.298,168.945 326.421 C 168.623 326.545,168.359 326.457,168.359 326.226 C 168.359 325.995,168.096 325.907,167.773 326.031 C 167.451 326.154,167.188 326.066,167.188 325.835 C 167.188 325.604,166.924 325.516,166.602 325.640 C 166.279 325.764,166.016 325.660,166.016 325.409 C 166.016 325.159,165.852 325.055,165.652 325.179 C 165.452 325.302,165.176 325.222,165.039 325.000 C 164.902 324.778,164.638 324.690,164.453 324.805 C 164.268 324.919,164.011 324.842,163.882 324.633 C 163.753 324.424,163.360 324.363,163.009 324.498 C 162.586 324.660,162.466 324.590,162.652 324.290 C 162.834 323.994,162.721 323.918,162.325 324.070 C 161.992 324.198,161.719 324.113,161.719 323.882 C 161.719 323.651,161.478 323.555,161.183 323.668 C 160.889 323.781,160.404 323.629,160.105 323.331 C 159.807 323.033,159.345 322.862,159.079 322.950 C 158.812 323.039,158.594 322.911,158.594 322.666 C 158.594 322.420,158.418 322.328,158.203 322.461 C 157.988 322.594,157.813 322.506,157.813 322.266 C 157.813 322.025,157.637 321.938,157.422 322.070 C 157.207 322.203,157.031 322.131,157.031 321.910 C 157.031 321.690,156.768 321.610,156.445 321.734 C 156.123 321.857,155.859 321.754,155.859 321.503 C 155.859 321.253,155.684 321.156,155.469 321.289 C 155.254 321.422,155.078 321.350,155.078 321.129 C 155.078 320.908,154.814 320.829,154.492 320.952 C 154.170 321.076,153.906 320.972,153.906 320.722 C 153.906 320.471,153.730 320.375,153.516 320.508 C 153.301 320.641,153.125 320.553,153.125 320.313 C 153.125 320.072,152.949 319.984,152.734 320.117 C 152.520 320.250,152.344 320.162,152.344 319.922 C 152.344 319.682,152.210 319.568,152.047 319.669 C 151.593 319.949,149.219 318.846,149.219 318.355 C 149.219 318.117,149.043 318.031,148.828 318.164 C 148.613 318.297,148.438 318.209,148.438 317.969 C 148.438 317.729,148.262 317.641,148.047 317.773 C 147.832 317.906,147.656 317.818,147.656 317.578 C 147.656 317.338,147.480 317.250,147.266 317.383 C 147.051 317.516,146.875 317.428,146.875 317.188 C 146.875 316.947,146.698 316.860,146.482 316.994 C 146.265 317.128,145.983 316.963,145.855 316.629 C 145.726 316.294,145.470 316.113,145.286 316.227 C 145.101 316.341,144.592 316.077,144.155 315.639 C 143.717 315.202,143.354 314.976,143.347 315.137 C 143.340 315.298,143.076 315.088,142.761 314.671 C 142.446 314.254,142.184 314.079,142.179 314.281 C 142.174 314.483,141.807 314.209,141.364 313.672 C 140.920 313.135,140.674 312.959,140.816 313.281 C 140.959 313.604,140.710 313.452,140.264 312.945 C 139.818 312.438,139.448 312.174,139.441 312.359 C 139.434 312.544,139.170 312.354,138.855 311.937 C 138.539 311.520,138.276 311.344,138.269 311.546 C 138.262 311.749,137.998 311.573,137.683 311.156 C 137.367 310.739,137.105 310.563,137.101 310.765 C 137.096 310.967,136.729 310.693,136.286 310.156 C 135.842 309.619,135.596 309.443,135.738 309.766 C 135.880 310.088,135.654 309.964,135.235 309.489 C 134.815 309.015,134.382 308.717,134.273 308.826 C 134.163 308.936,133.702 308.553,133.248 307.976 C 132.793 307.398,132.414 307.081,132.405 307.272 C 132.396 307.462,131.673 306.826,130.797 305.859 C 129.922 304.893,129.326 304.365,129.472 304.688 C 129.618 305.010,128.571 304.043,127.144 302.539 C 125.718 301.035,124.388 299.849,124.190 299.902 C 123.991 299.956,123.872 299.788,123.926 299.529 C 123.979 299.271,123.760 299.043,123.438 299.023 C 123.115 299.004,122.893 298.784,122.943 298.535 C 122.994 298.286,122.078 297.255,120.908 296.245 C 119.737 295.235,118.860 294.279,118.958 294.121 C 119.055 293.963,118.622 293.425,117.995 292.926 C 117.368 292.427,116.937 291.886,117.037 291.725 C 117.136 291.564,116.859 291.208,116.421 290.934 C 115.983 290.661,115.625 290.293,115.625 290.117 C 115.625 289.942,114.588 288.435,113.321 286.770 C 109.871 282.239,105.467 275.568,103.743 272.266 C 102.903 270.654,102.067 269.277,101.886 269.205 C 101.706 269.133,101.675 268.883,101.819 268.650 C 101.982 268.387,101.853 268.314,101.479 268.458 C 101.148 268.585,100.687 268.499,100.455 268.267 C 100.153 267.965,99.856 267.993,99.409 268.364 C 99.065 268.649,98.831 268.721,98.889 268.523 C 99.079 267.875,98.021 266.376,97.570 266.655 C 97.278 266.835,97.223 266.691,97.403 266.220 C 97.620 265.656,97.567 265.603,97.141 265.957 C 96.500 266.489,96.063 266.159,96.365 265.373 C 96.621 264.706,95.373 263.673,94.648 263.952 C 94.371 264.058,94.227 264.276,94.326 264.438 C 94.426 264.599,94.078 264.649,93.552 264.548 C 92.335 264.316,90.530 262.530,90.800 261.825 C 90.914 261.529,90.833 261.395,90.621 261.526 C 90.408 261.657,90.234 261.568,90.234 261.328 C 90.234 261.088,90.043 261.009,89.810 261.154 C 89.504 261.343,89.504 261.535,89.810 261.841 C 90.434 262.465,90.328 262.891,89.551 262.885 C 88.967 262.880,88.952 262.824,89.453 262.500 C 90.004 262.144,89.710 261.929,88.889 262.088 C 88.325 262.198,86.785 261.283,86.564 260.707 C 86.307 260.039,87.533 260.477,88.124 261.265 C 88.360 261.580,88.651 261.678,88.771 261.483 C 88.892 261.288,88.670 260.733,88.278 260.250 C 87.887 259.766,87.508 259.535,87.436 259.737 C 87.250 260.257,84.649 259.653,84.531 259.062 C 84.477 258.794,84.523 258.754,84.632 258.975 C 84.741 259.195,85.013 259.375,85.237 259.375 C 85.494 259.375,85.475 259.173,85.186 258.825 C 84.936 258.523,84.308 258.322,83.792 258.379 C 83.276 258.435,82.762 258.243,82.650 257.952 C 82.538 257.660,82.255 257.422,82.020 257.422 C 81.786 257.422,81.720 257.625,81.873 257.873 C 82.051 258.161,81.980 258.217,81.674 258.029 C 81.412 257.866,81.295 257.478,81.414 257.167 C 81.536 256.850,81.461 256.705,81.246 256.839 C 81.033 256.970,80.859 256.891,80.859 256.664 C 80.859 256.436,81.042 256.250,81.265 256.250 C 81.500 256.250,81.458 256.019,81.168 255.705 C 80.891 255.405,80.547 255.231,80.404 255.317 C 80.262 255.403,80.056 255.253,79.947 254.983 C 79.838 254.713,79.735 254.631,79.718 254.801 M99.025 266.403 C 98.894 266.616,98.947 267.078,99.144 267.430 C 99.388 267.866,99.588 267.929,99.774 267.628 C 99.924 267.386,99.841 267.188,99.591 267.188 C 99.340 267.188,99.236 266.924,99.360 266.602 C 99.613 265.942,99.391 265.811,99.025 266.403 M100.467 267.393 C 100.718 267.944,101.065 268.232,101.252 268.045 C 101.713 267.584,101.210 266.406,100.553 266.406 C 100.121 266.406,100.104 266.599,100.467 267.393 M204.581 274.110 C 205.275 274.196,206.505 274.198,207.316 274.113 C 208.126 274.029,207.559 273.958,206.055 273.956 C 204.551 273.955,203.888 274.024,204.581 274.110 M199.316 369.037 C 200.337 369.118,202.007 369.118,203.027 369.037 C 204.048 368.957,203.213 368.891,201.172 368.891 C 199.131 368.891,198.296 368.957,199.316 369.037 " stroke="none" fill="#8064ae" fill-rule="evenodd"></path><path id="path3" d="M205.378 88.564 C 206.080 88.651,207.135 88.649,207.722 88.560 C 208.309 88.471,207.734 88.400,206.445 88.402 C 205.156 88.404,204.676 88.477,205.378 88.564 M373.138 195.313 C 373.138 196.064,373.218 196.372,373.316 195.996 C 373.414 195.620,373.414 195.005,373.316 194.629 C 373.218 194.253,373.138 194.561,373.138 195.313 M73.215 239.275 C 73.230 239.975,73.402 240.449,73.597 240.330 C 73.792 240.210,73.852 240.492,73.731 240.955 C 73.590 241.495,73.660 241.706,73.926 241.541 C 74.192 241.376,74.263 241.587,74.121 242.127 C 73.980 242.667,74.050 242.878,74.317 242.713 C 74.583 242.548,74.653 242.759,74.512 243.299 C 74.391 243.762,74.434 244.054,74.608 243.946 C 74.995 243.707,75.856 246.047,75.558 246.529 C 75.441 246.719,75.541 246.875,75.781 246.875 C 76.021 246.875,76.119 247.036,75.997 247.232 C 75.876 247.429,75.961 247.651,76.187 247.726 C 76.413 247.802,76.627 248.256,76.663 248.736 C 76.700 249.230,76.990 249.612,77.329 249.615 C 77.859 249.621,77.861 249.666,77.344 250.000 C 76.953 250.252,76.921 250.381,77.246 250.385 C 77.515 250.388,77.734 250.635,77.734 250.935 C 77.734 251.234,78.018 251.588,78.364 251.721 C 78.874 251.916,78.903 252.073,78.512 252.544 C 78.079 253.065,78.232 253.281,78.967 253.184 C 79.108 253.165,79.325 253.417,79.451 253.744 C 79.580 254.081,79.512 254.235,79.292 254.099 C 79.080 253.968,78.906 254.153,78.906 254.511 C 78.906 254.929,79.116 255.081,79.492 254.937 C 79.814 254.813,80.078 254.893,80.078 255.113 C 80.078 255.334,80.210 255.435,80.371 255.337 C 80.532 255.240,80.891 255.405,81.168 255.705 C 81.458 256.019,81.500 256.250,81.265 256.250 C 81.042 256.250,80.859 256.436,80.859 256.664 C 80.859 256.891,81.033 256.970,81.246 256.839 C 81.461 256.705,81.536 256.850,81.414 257.167 C 81.295 257.478,81.412 257.866,81.674 258.029 C 81.980 258.217,82.051 258.161,81.873 257.873 C 81.720 257.625,81.786 257.422,82.020 257.422 C 82.255 257.422,82.538 257.660,82.650 257.952 C 82.762 258.243,83.276 258.435,83.792 258.379 C 84.308 258.322,84.936 258.523,85.186 258.825 C 85.475 259.173,85.494 259.375,85.237 259.375 C 85.013 259.375,84.741 259.195,84.632 258.975 C 84.523 258.754,84.477 258.794,84.531 259.062 C 84.649 259.653,87.250 260.257,87.436 259.737 C 87.508 259.535,87.887 259.766,88.278 260.250 C 88.670 260.733,88.892 261.288,88.771 261.483 C 88.651 261.678,88.360 261.580,88.124 261.265 C 87.533 260.477,86.307 260.039,86.564 260.707 C 86.785 261.283,88.325 262.198,88.889 262.088 C 89.710 261.929,90.004 262.144,89.453 262.500 C 88.952 262.824,88.967 262.880,89.551 262.885 C 90.328 262.891,90.434 262.465,89.810 261.841 C 89.504 261.535,89.504 261.343,89.810 261.154 C 90.043 261.009,90.234 261.088,90.234 261.328 C 90.234 261.568,90.408 261.657,90.621 261.526 C 90.833 261.395,90.914 261.529,90.800 261.825 C 90.530 262.530,92.335 264.316,93.552 264.548 C 94.078 264.649,94.426 264.599,94.326 264.438 C 94.227 264.276,94.371 264.058,94.648 263.952 C 95.373 263.673,96.621 264.706,96.365 265.373 C 96.063 266.159,96.500 266.489,97.141 265.957 C 97.567 265.603,97.620 265.656,97.403 266.220 C 97.223 266.691,97.278 266.835,97.570 266.655 C 98.021 266.376,99.079 267.875,98.889 268.523 C 98.831 268.721,99.065 268.649,99.409 268.364 C 99.856 267.993,100.153 267.965,100.455 268.267 C 100.933 268.745,101.953 268.481,101.953 267.879 C 101.953 267.650,101.705 267.688,101.367 267.969 C 100.659 268.556,100.584 267.955,101.270 267.187 C 101.680 266.726,101.656 266.715,101.120 267.119 C 100.603 267.507,100.439 267.485,100.253 267.002 C 100.112 266.635,100.244 266.406,100.598 266.406 C 100.914 266.406,101.172 266.230,101.172 266.016 C 101.172 265.801,100.986 265.625,100.758 265.625 C 100.531 265.625,100.453 265.449,100.586 265.234 C 100.719 265.020,100.631 264.844,100.391 264.844 C 100.150 264.844,100.050 264.688,100.168 264.497 C 100.286 264.307,100.112 263.927,99.783 263.654 C 99.453 263.380,99.274 262.921,99.384 262.633 C 99.494 262.345,99.396 262.109,99.165 262.109 C 98.934 262.109,98.838 261.866,98.952 261.568 C 99.066 261.271,98.916 260.679,98.617 260.252 C 98.319 259.826,98.185 259.367,98.321 259.231 C 98.457 259.095,98.344 258.984,98.070 258.984 C 97.788 258.984,97.670 258.730,97.798 258.398 C 97.921 258.076,97.833 257.813,97.602 257.813 C 97.371 257.813,97.283 257.549,97.407 257.227 C 97.553 256.847,97.396 256.639,96.960 256.635 C 96.462 256.630,96.419 256.546,96.792 256.309 C 97.191 256.057,97.200 255.752,96.835 254.850 C 96.581 254.224,95.527 250.986,94.493 247.656 C 93.458 244.326,92.604 242.007,92.595 242.504 C 92.585 243.040,92.409 243.301,92.161 243.148 C 91.932 243.006,91.648 243.259,91.530 243.711 C 91.405 244.189,90.999 244.531,90.556 244.531 C 90.139 244.531,89.898 244.369,90.021 244.170 C 90.144 243.972,89.934 243.728,89.556 243.630 C 88.905 243.460,88.905 243.448,89.551 243.405 C 89.927 243.380,90.234 243.189,90.234 242.981 C 90.234 242.749,89.896 242.734,89.355 242.944 C 88.872 243.131,88.518 243.471,88.570 243.698 C 88.670 244.147,87.625 243.877,86.807 243.243 C 86.443 242.961,86.371 243.016,86.538 243.451 C 86.704 243.885,86.498 244.043,85.765 244.043 C 85.215 244.043,84.766 243.889,84.766 243.701 C 84.766 243.513,84.584 243.359,84.361 243.359 C 84.083 243.359,84.083 243.594,84.361 244.115 C 84.965 245.243,84.850 245.565,84.151 244.704 C 83.813 244.287,83.647 244.165,83.783 244.434 C 83.919 244.702,83.844 244.922,83.617 244.922 C 83.389 244.922,83.203 244.746,83.203 244.531 C 83.203 244.316,83.017 244.141,82.789 244.141 C 82.562 244.141,82.484 244.316,82.617 244.531 C 82.987 245.129,82.552 244.996,81.853 244.297 C 81.353 243.798,81.113 243.768,80.653 244.150 C 80.069 244.634,79.939 244.453,80.050 243.310 C 80.129 242.492,78.967 242.041,78.271 242.619 C 77.854 242.965,77.734 242.925,77.734 242.438 C 77.734 242.090,77.285 241.699,76.725 241.559 C 75.977 241.371,75.767 241.114,75.910 240.565 C 76.034 240.091,75.920 239.864,75.594 239.932 C 75.313 239.991,74.657 239.581,74.136 239.021 L 73.188 238.003 73.215 239.275 M91.863 239.258 C 91.857 239.688,92.003 240.391,92.188 240.820 C 92.615 241.816,92.615 240.789,92.188 239.453 C 91.936 238.668,91.872 238.630,91.863 239.258 M76.416 240.547 C 76.256 240.805,76.210 241.016,76.312 241.016 C 76.415 241.016,76.777 241.122,77.116 241.253 C 77.462 241.385,77.734 241.289,77.734 241.034 C 77.734 240.784,77.574 240.678,77.377 240.800 C 77.181 240.921,76.949 240.808,76.863 240.549 C 76.741 240.183,76.641 240.182,76.416 240.547 M92.974 243.913 C 92.977 244.146,93.097 244.775,93.240 245.313 C 93.495 246.267,93.484 246.273,92.768 245.557 C 91.903 244.693,91.719 243.490,92.453 243.490 C 92.737 243.490,92.971 243.680,92.974 243.913 M80.114 257.129 C 81.761 260.413,86.411 268.750,86.594 268.750 C 86.698 268.750,85.995 267.300,85.034 265.527 C 81.654 259.297,80.421 256.642,80.699 256.193 C 80.874 255.910,80.810 255.844,80.529 256.017 C 80.281 256.171,80.078 256.110,80.078 255.882 C 80.078 255.655,79.899 255.469,79.680 255.469 C 79.460 255.469,79.656 256.216,80.114 257.129 M99.360 266.602 C 99.236 266.924,99.340 267.188,99.591 267.188 C 99.841 267.188,99.924 267.386,99.774 267.628 C 99.588 267.929,99.388 267.866,99.144 267.430 C 98.947 267.078,98.894 266.616,99.025 266.403 C 99.391 265.811,99.613 265.942,99.360 266.602 M87.230 270.117 C 87.561 270.762,88.123 271.641,88.480 272.070 C 88.838 272.500,88.735 272.148,88.252 271.289 C 87.188 269.393,86.390 268.479,87.230 270.117 M201.074 305.751 C 201.772 305.838,202.915 305.838,203.613 305.751 C 204.312 305.665,203.740 305.594,202.344 305.594 C 200.947 305.594,200.376 305.665,201.074 305.751 " stroke="none" fill="#a292c2" fill-rule="evenodd"></path><path id="path4" d="M197.768 24.898 C 199.011 24.976,200.945 24.976,202.065 24.897 C 203.185 24.818,202.168 24.755,199.805 24.755 C 197.441 24.756,196.525 24.821,197.768 24.898 M324.805 77.344 C 325.863 78.418,326.816 79.297,326.924 79.297 C 327.031 79.297,326.253 78.418,325.195 77.344 C 324.137 76.270,323.184 75.391,323.076 75.391 C 322.969 75.391,323.747 76.270,324.805 77.344 M67.699 206.055 C 67.701 207.344,67.774 207.824,67.861 207.122 C 67.948 206.420,67.946 205.365,67.857 204.778 C 67.768 204.191,67.697 204.766,67.699 206.055 M68.014 210.218 C 67.989 211.004,68.247 213.794,68.588 216.418 C 68.928 219.042,69.120 221.520,69.015 221.923 C 68.899 222.366,68.983 222.558,69.226 222.408 C 69.485 222.248,69.571 222.658,69.467 223.552 C 69.374 224.347,69.459 224.849,69.665 224.722 C 69.871 224.595,69.949 225.028,69.847 225.726 C 69.748 226.401,69.831 226.953,70.032 226.953 C 70.233 226.953,70.287 227.393,70.152 227.930 C 69.998 228.542,70.072 228.906,70.351 228.906 C 70.606 228.906,70.705 229.247,70.584 229.711 C 70.454 230.209,70.589 230.600,70.939 230.734 C 71.355 230.893,71.393 231.085,71.082 231.459 C 70.769 231.837,70.829 232.063,71.318 232.336 C 71.744 232.575,71.826 232.797,71.552 232.966 C 71.319 233.110,71.227 233.485,71.347 233.799 C 71.468 234.113,71.768 234.250,72.014 234.102 C 72.260 233.955,72.220 234.132,71.925 234.495 C 71.437 235.097,71.579 235.326,72.363 235.203 C 72.827 235.129,72.704 235.857,72.225 236.016 C 71.817 236.152,74.378 244.310,75.355 245.988 C 76.015 247.122,75.844 246.416,74.663 243.141 C 74.048 241.435,73.425 239.538,73.279 238.926 L 73.013 237.813 74.048 238.926 C 74.618 239.538,75.313 239.991,75.594 239.932 C 75.920 239.864,76.034 240.091,75.910 240.565 C 75.767 241.114,75.977 241.371,76.725 241.559 C 77.285 241.699,77.734 242.090,77.734 242.438 C 77.734 242.925,77.854 242.965,78.271 242.619 C 78.967 242.041,80.129 242.492,80.050 243.310 C 79.939 244.453,80.069 244.634,80.653 244.150 C 81.113 243.768,81.353 243.798,81.853 244.297 C 82.552 244.996,82.987 245.129,82.617 244.531 C 82.484 244.316,82.562 244.141,82.789 244.141 C 83.017 244.141,83.203 244.316,83.203 244.531 C 83.203 244.746,83.389 244.922,83.617 244.922 C 83.844 244.922,83.919 244.702,83.783 244.434 C 83.647 244.165,83.813 244.287,84.151 244.704 C 84.850 245.565,84.965 245.243,84.361 244.115 C 84.083 243.594,84.083 243.359,84.361 243.359 C 84.584 243.359,84.766 243.513,84.766 243.701 C 84.766 243.889,85.215 244.043,85.765 244.043 C 86.498 244.043,86.704 243.885,86.538 243.451 C 86.371 243.016,86.443 242.961,86.807 243.243 C 87.625 243.877,88.670 244.147,88.570 243.698 C 88.518 243.471,88.872 243.131,89.355 242.944 C 89.866 242.746,90.234 242.750,90.234 242.953 C 90.234 243.145,89.927 243.382,89.551 243.481 C 88.919 243.646,88.921 243.663,89.574 243.705 C 89.962 243.730,90.172 243.926,90.039 244.141 C 89.906 244.355,90.139 244.531,90.556 244.531 C 90.999 244.531,91.405 244.189,91.530 243.711 C 91.648 243.259,91.932 243.006,92.161 243.148 C 92.391 243.290,92.578 243.146,92.578 242.828 C 92.578 242.511,92.696 241.945,92.840 241.569 C 93.006 241.136,92.950 240.981,92.686 241.144 C 92.131 241.487,91.714 239.723,92.042 238.418 C 92.200 237.788,92.154 237.475,91.923 237.617 C 91.708 237.750,91.551 237.312,91.560 236.601 C 91.578 235.121,89.871 219.902,89.624 219.336 C 89.530 219.121,89.513 219.844,89.586 220.943 C 89.719 222.938,89.717 222.941,88.580 222.844 C 87.886 222.785,87.358 222.963,87.229 223.299 C 87.001 223.893,85.962 222.886,85.962 222.070 C 85.962 221.855,86.220 222.021,86.536 222.438 C 86.858 222.864,87.109 222.980,87.109 222.703 C 87.109 222.432,86.846 221.946,86.523 221.624 C 86.173 221.273,85.938 221.215,85.938 221.480 C 85.938 221.722,85.762 221.812,85.547 221.680 C 85.332 221.547,85.156 221.624,85.156 221.852 C 85.156 222.079,84.937 222.222,84.668 222.168 C 84.399 222.114,84.226 222.298,84.283 222.575 C 84.367 222.984,84.218 222.987,83.502 222.590 C 83.015 222.320,82.485 222.137,82.324 222.183 C 82.163 222.228,82.017 221.870,82.000 221.387 C 81.983 220.903,81.877 220.738,81.765 221.020 C 81.605 221.419,81.400 221.387,80.833 220.874 C 80.411 220.493,79.717 220.290,79.180 220.393 C 78.599 220.504,78.231 220.377,78.190 220.051 C 78.154 219.765,78.096 219.260,78.060 218.929 C 78.024 218.597,77.782 218.407,77.522 218.507 C 77.261 218.607,76.861 218.502,76.632 218.273 C 76.337 217.978,76.276 218.088,76.423 218.650 C 76.537 219.086,76.441 219.560,76.210 219.703 C 75.942 219.868,75.883 219.720,76.047 219.292 C 76.215 218.857,76.154 218.715,75.874 218.888 C 75.638 219.034,75.182 218.780,74.863 218.324 C 74.509 217.818,74.093 217.610,73.799 217.791 C 73.467 217.997,73.416 217.928,73.637 217.572 C 73.873 217.190,73.775 217.124,73.263 217.321 C 72.762 217.513,72.628 217.433,72.782 217.033 C 72.899 216.729,72.660 216.178,72.252 215.808 C 71.543 215.166,71.518 215.176,71.680 216.020 C 71.774 216.505,71.724 216.776,71.570 216.622 C 71.293 216.345,71.239 216.151,71.143 215.086 C 71.116 214.790,70.566 214.329,69.922 214.063 C 69.277 213.796,68.755 213.291,68.762 212.941 C 68.772 212.387,68.826 212.394,69.177 212.996 C 69.398 213.377,69.737 213.591,69.929 213.472 C 70.427 213.164,69.942 212.109,69.302 212.109 C 69.006 212.109,68.680 211.714,68.577 211.230 C 68.474 210.747,68.315 210.000,68.225 209.570 C 68.134 209.141,68.039 209.432,68.014 210.218 M89.552 217.383 C 89.556 218.242,89.636 218.548,89.729 218.062 C 89.823 217.576,89.819 216.873,89.722 216.499 C 89.624 216.126,89.547 216.523,89.552 217.383 M77.377 240.800 C 77.574 240.678,77.734 240.784,77.734 241.034 C 77.734 241.289,77.462 241.385,77.116 241.253 C 76.777 241.122,76.415 241.016,76.312 241.016 C 76.210 241.016,76.256 240.805,76.416 240.547 C 76.641 240.182,76.741 240.183,76.863 240.549 C 76.949 240.808,77.181 240.921,77.377 240.800 M92.818 243.189 C 92.689 243.525,92.437 243.709,92.257 243.598 C 91.687 243.245,92.009 244.800,92.636 245.427 C 93.177 245.967,93.234 245.855,93.201 244.303 C 93.160 242.372,93.146 242.333,92.818 243.189 M320.886 319.629 L 318.555 322.070 320.996 319.739 C 322.339 318.456,323.438 317.358,323.438 317.297 C 323.438 317.009,323.052 317.361,320.886 319.629 " stroke="none" fill="#beb1d4" fill-rule="evenodd"></path></g></svg>